<?xml version="1.0" standalone="no"?>
<!DOCTYPE svg PUBLIC "-//W3C//DTD SVG 20010904//EN"
 "http://www.w3.org/TR/2001/REC-SVG-20010904/DTD/svg10.dtd">
<svg version="1.0" xmlns="http://www.w3.org/2000/svg"
 width="1581.000000pt" height="1581.000000pt" viewBox="0 0 1581.000000 1581.000000"
 preserveAspectRatio="xMidYMid meet">
<metadata>
Created by potrace 1.14, written by Peter Selinger 2001-2017
</metadata>
<g transform="translate(0.000000,1581.000000) scale(0.100000,-0.100000)"
fill="#000000" stroke="none">
<path d="M5251 13787 c-7 -10 -12 -163 -13 -508 l-3 -494 -90 -7 c-49 -3 -110
-11 -135 -17 -25 -6 -61 -11 -80 -11 -62 0 -335 -61 -680 -151 -25 -7 -76 -23
-115 -36 -38 -14 -83 -28 -100 -33 -42 -12 -76 -24 -255 -90 -105 -40 -179
-68 -205 -80 -11 -5 -49 -21 -85 -35 -117 -47 -612 -296 -745 -375 -71 -43
-146 -87 -165 -97 -86 -49 -313 -192 -400 -251 -408 -280 -465 -322 -751 -553
-169 -136 -392 -331 -413 -360 -12 -18 -12 -26 6 -67 11 -26 26 -63 34 -82 27
-62 32 -74 68 -153 20 -44 36 -81 36 -84 0 -13 159 -322 208 -403 12 -19 31
-53 43 -75 109 -204 395 -620 584 -850 177 -216 406 -458 559 -592 67 -58 141
-124 166 -146 100 -90 343 -274 451 -342 163 -103 213 -134 294 -179 50 -28
135 -73 190 -100 55 -27 107 -52 116 -56 9 -5 61 -27 115 -50 54 -22 113 -47
129 -55 17 -7 41 -18 55 -24 29 -12 201 -70 245 -82 17 -4 62 -17 100 -29 39
-12 86 -25 105 -30 19 -4 71 -18 115 -30 79 -21 165 -38 300 -59 39 -6 95 -16
126 -21 30 -6 73 -10 95 -10 21 0 49 -3 62 -6 l22 -6 0 -429 c0 -413 1 -429
19 -439 30 -16 7083 -14 7099 2 9 9 12 855 12 3744 0 2053 -3 3739 -6 3748 -6
15 -328 16 -3554 16 -2954 0 -3549 -2 -3559 -13z m744 -1011 c83 -11 112 -14
170 -21 115 -12 137 -15 145 -20 4 -2 29 -7 56 -10 27 -3 76 -13 109 -21 33
-8 76 -17 95 -20 19 -3 40 -9 45 -13 6 -4 24 -8 40 -10 17 -1 57 -11 90 -21
33 -10 87 -26 120 -35 96 -27 159 -47 179 -57 11 -6 32 -12 48 -15 15 -2 40
-11 56 -19 15 -7 35 -14 44 -14 9 0 19 -4 22 -9 3 -5 18 -12 33 -16 16 -3 42
-13 58 -20 114 -51 146 -65 183 -76 23 -7 42 -16 42 -21 0 -4 6 -8 14 -8 26 0
384 -188 546 -287 25 -15 47 -27 50 -28 10 -1 240 -153 250 -165 3 -3 34 -25
70 -50 51 -34 217 -155 285 -207 35 -27 153 -126 189 -158 6 -5 45 -39 86 -75
201 -174 459 -434 586 -590 16 -19 32 -38 36 -41 5 -3 19 -20 33 -39 l25 -33
-37 -46 c-21 -25 -42 -51 -48 -57 -5 -6 -53 -57 -105 -114 -172 -186 -452
-462 -620 -610 -9 -8 -48 -42 -85 -75 -37 -33 -73 -65 -79 -70 -17 -16 -185
-156 -236 -196 -157 -126 -548 -409 -565 -409 -3 0 -27 -16 -54 -35 -26 -19
-53 -35 -60 -35 -6 0 -11 -3 -11 -8 0 -4 -9 -12 -19 -17 -11 -6 -55 -31 -98
-57 -129 -77 -146 -86 -203 -114 -30 -15 -57 -30 -60 -33 -8 -10 -342 -171
-354 -171 -3 0 -34 -13 -68 -29 -57 -26 -148 -61 -173 -68 -5 -1 -50 -16 -100
-33 -137 -47 -156 -52 -194 -57 -20 -3 -43 -9 -52 -14 -9 -5 -32 -11 -50 -13
-39 -6 -58 -10 -114 -24 -22 -6 -64 -13 -93 -16 -29 -3 -57 -8 -62 -11 -43
-26 -776 -27 -819 -1 -5 3 -26 8 -47 12 -22 3 -40 7 -42 8 -7 8 -2 500 5 507
6 6 24 3 46 -6 20 -8 37 -13 37 -10 0 2 11 0 25 -5 29 -11 65 -19 110 -26 17
-2 40 -6 52 -9 70 -17 355 -24 433 -12 55 9 133 20 155 21 11 1 25 4 30 8 10
6 42 13 100 24 16 3 35 10 42 16 7 6 13 8 13 5 0 -10 233 70 320 110 64 30
188 91 210 103 8 5 49 28 90 52 41 23 77 45 80 48 3 4 41 28 85 55 72 45 213
142 225 155 3 4 23 19 45 36 53 38 60 44 94 75 16 14 46 39 66 55 47 37 64 51
155 132 149 134 203 187 340 332 63 67 135 143 160 169 45 47 70 77 145 167
22 27 50 59 62 72 13 12 28 32 34 45 7 12 32 45 56 73 23 28 43 60 43 72 0 22
-54 94 -139 187 -67 72 -400 404 -428 425 -10 8 -55 44 -98 80 -131 107 -252
200 -261 200 -5 0 -18 10 -47 36 -7 6 -23 16 -35 23 -13 7 -32 20 -43 29 -25
21 -89 60 -111 68 -10 4 -18 10 -18 15 0 5 -5 9 -11 9 -6 0 -23 8 -37 19 -50
35 -308 172 -422 224 -25 11 -57 26 -72 34 -16 8 -28 12 -28 8 0 -3 -13 1 -29
9 -31 17 -97 41 -151 58 -19 5 -39 14 -45 18 -5 4 -26 11 -45 14 -19 4 -46 11
-60 16 -67 23 -241 66 -307 76 -21 3 -46 7 -55 10 -27 8 -56 12 -133 18 -38 3
-81 8 -95 11 -77 16 -433 24 -532 12 -26 -3 -50 -2 -52 1 -4 7 -10 487 -7 519
0 6 16 13 34 15 45 6 663 0 712 -6z m-764 -565 c4 -15 5 -627 2 -637 -2 -6 -9
-11 -16 -11 -14 -1 -76 -12 -97 -18 -8 -2 -35 -6 -60 -9 -53 -7 -87 -13 -98
-19 -4 -3 -27 -8 -52 -11 -61 -8 -88 -14 -99 -20 -5 -3 -26 -8 -47 -12 -20 -3
-49 -10 -63 -16 -14 -5 -39 -12 -56 -14 -16 -3 -47 -12 -68 -21 -20 -9 -40
-13 -43 -10 -3 3 -23 -3 -42 -14 -20 -10 -42 -19 -49 -19 -7 0 -27 -6 -45 -14
-18 -8 -69 -29 -113 -46 -125 -50 -376 -170 -455 -218 -19 -12 -42 -25 -50
-29 -30 -14 -155 -97 -162 -107 -5 -7 -8 -7 -8 -1 0 7 -3 7 -8 0 -4 -6 -34
-28 -67 -50 -33 -22 -65 -44 -71 -50 -6 -5 -22 -17 -34 -25 -12 -8 -39 -28
-60 -45 -20 -16 -52 -41 -70 -55 -85 -63 -260 -228 -270 -255 -7 -18 -1 -38
38 -145 3 -8 4 -18 4 -22 -1 -5 2 -8 8 -8 5 0 10 -8 10 -19 0 -23 21 -76 90
-226 18 -38 36 -79 41 -90 5 -11 17 -33 27 -50 21 -33 98 -175 119 -216 7 -15
20 -32 28 -39 8 -7 15 -19 15 -26 0 -8 5 -14 10 -14 6 0 10 -4 10 -10 0 -11
101 -157 159 -230 20 -25 39 -49 44 -55 36 -48 101 -119 207 -225 146 -147
196 -191 204 -183 3 4 6 2 6 -4 0 -11 213 -173 228 -173 5 0 15 -6 21 -14 7
-8 26 -22 44 -31 18 -9 50 -27 72 -41 22 -13 51 -28 65 -34 14 -6 33 -19 42
-27 10 -9 18 -13 18 -9 0 4 12 0 28 -8 34 -19 122 -56 240 -100 66 -25 225
-73 264 -80 15 -3 32 -7 38 -11 6 -4 22 -8 35 -11 14 -2 37 -6 52 -9 14 -2 30
-9 33 -16 4 -6 7 -141 6 -301 -1 -231 -4 -290 -15 -297 -7 -5 -32 -4 -55 1
-22 5 -52 11 -66 13 -74 11 -107 16 -130 21 -14 3 -34 8 -45 10 -11 2 -45 11
-75 19 -52 14 -93 25 -115 29 -5 1 -14 4 -20 8 -5 3 -48 18 -95 32 -47 15 -94
30 -105 35 -11 5 -40 17 -65 27 -167 66 -368 170 -509 262 -31 20 -64 41 -73
47 -76 47 -279 199 -334 250 -6 5 -37 33 -69 60 -71 60 -265 254 -320 319 -22
26 -54 62 -70 80 -17 17 -53 61 -80 96 -27 36 -54 70 -60 76 -16 19 -53 66
-79 104 -91 130 -166 242 -166 249 0 5 -4 11 -8 13 -26 10 -357 617 -362 663
0 6 -8 20 -16 33 -8 12 -12 22 -9 22 4 0 -5 21 -18 48 -14 26 -32 67 -42 92
-9 25 -22 56 -28 70 -6 14 -12 32 -13 40 -2 8 -8 24 -15 36 -14 27 -7 62 21
95 11 13 23 29 28 34 4 6 28 35 53 65 24 30 58 71 74 90 54 62 299 305 354
350 30 25 67 57 83 73 16 15 31 27 35 27 3 0 11 6 17 14 9 12 58 49 281 214
57 42 333 212 344 212 5 0 11 4 13 8 4 11 287 152 304 152 8 0 14 5 14 10 0 6
7 10 15 10 8 0 32 9 52 20 21 11 45 20 54 20 9 0 22 7 29 15 7 8 15 13 19 11
3 -3 24 4 46 14 22 11 46 19 53 20 7 0 26 7 42 15 16 8 37 16 47 18 10 2 27 8
38 14 11 6 55 21 98 32 42 12 92 28 111 36 18 8 43 12 55 10 11 -2 23 0 26 4
4 8 56 22 100 26 11 2 33 8 50 14 16 7 48 15 70 17 22 3 56 9 75 14 19 5 55
11 80 15 25 3 63 8 85 12 76 12 90 13 160 19 39 4 71 8 73 9 5 4 52 -7 53 -14z
m687 -655 c46 -12 121 -27 157 -30 11 -1 26 -5 32 -9 7 -5 32 -10 55 -13 23
-3 48 -10 55 -16 7 -6 13 -8 13 -4 0 3 16 0 35 -8 19 -8 35 -13 35 -10 0 3 10
-1 23 -8 12 -6 27 -13 32 -14 6 -2 20 -5 32 -8 11 -2 35 -12 52 -20 17 -9 31
-14 31 -10 0 3 11 -1 25 -10 13 -9 29 -16 35 -16 18 0 234 -110 242 -123 4 -7
8 -8 8 -4 0 5 12 0 28 -10 15 -10 35 -22 44 -28 93 -56 234 -159 358 -260 46
-38 256 -250 273 -275 19 -30 18 -32 -53 -90 -78 -64 -100 -82 -128 -108 -14
-12 -38 -33 -54 -45 -16 -12 -39 -31 -52 -42 -12 -11 -46 -40 -76 -65 -29 -25
-58 -50 -64 -55 -6 -6 -44 -37 -83 -69 -40 -32 -73 -62 -73 -67 0 -5 -5 -9
-11 -9 -5 0 -24 -12 -40 -27 -17 -16 -42 -38 -55 -50 -14 -13 -27 -23 -30 -23
-3 0 -11 -6 -18 -12 -42 -41 -171 -149 -192 -161 -7 -4 -46 50 -100 141 -49
81 -92 149 -96 150 -5 2 -8 8 -8 13 0 6 -16 34 -35 64 -19 30 -32 55 -29 55 3
0 -2 7 -10 16 -9 8 -28 35 -42 60 -14 24 -30 44 -35 44 -5 0 -9 5 -9 11 0 20
-118 165 -195 239 -114 110 -114 110 -122 111 -5 1 -26 14 -48 29 -40 27 -171
92 -190 95 -5 1 -23 6 -38 13 -16 7 -35 12 -42 12 -8 0 -34 6 -57 14 -24 8
-59 17 -78 20 -19 2 -46 7 -60 11 -14 3 -43 8 -65 11 -22 4 -42 8 -45 11 -6 5
-1 542 5 563 4 12 23 16 82 19 43 1 79 4 81 5 5 6 478 -2 500 -8z m-712 -595
l21 -1 -1 -1012 -1 -1013 -24 3 c-59 6 -345 165 -449 248 -128 103 -310 288
-371 378 -8 12 -18 23 -21 26 -4 3 -42 58 -85 124 -69 104 -235 418 -235 443
0 6 -6 23 -14 39 -33 69 -54 121 -61 153 -7 32 -4 37 81 120 119 116 334 275
444 330 25 12 52 26 60 30 19 11 114 47 210 80 38 13 58 18 105 27 17 2 44 7
60 11 74 14 190 20 281 14z m5041 -1182 c6 -6 20 -16 31 -23 36 -20 177 -105
188 -113 5 -4 25 -16 42 -25 106 -57 193 -105 231 -130 25 -15 51 -28 58 -28
7 0 13 -4 13 -10 0 -5 4 -10 9 -10 5 0 38 -16 73 -36 60 -35 104 -59 223 -124
113 -63 325 -201 362 -237 13 -11 8 -43 -7 -43 -4 0 -18 -10 -31 -22 -14 -13
-34 -30 -46 -38 -151 -108 -189 -135 -191 -142 -2 -4 -8 -8 -13 -8 -9 0 -65
-36 -79 -50 -6 -6 -37 -25 -75 -46 -16 -10 -46 -27 -65 -39 -19 -12 -39 -22
-44 -23 -5 0 -12 -4 -15 -9 -3 -5 -42 -30 -86 -55 -44 -25 -111 -63 -150 -85
-63 -36 -298 -153 -335 -167 -8 -3 -22 -10 -30 -16 -16 -10 -200 -97 -265
-124 -22 -10 -53 -23 -70 -31 -39 -17 -89 -38 -95 -40 -3 -1 -18 -8 -35 -15
-16 -7 -34 -14 -40 -15 -24 -6 -121 -48 -132 -57 -7 -6 -13 -7 -13 -3 0 4 -7
2 -15 -5 -8 -7 -15 -10 -15 -6 0 4 -18 -3 -40 -14 -22 -11 -40 -18 -40 -16 0
2 -36 -11 -80 -29 -44 -18 -80 -31 -80 -29 0 3 -10 -1 -22 -8 -13 -7 -25 -13
-28 -13 -37 -9 -67 -19 -77 -27 -6 -5 -24 -11 -40 -14 -15 -3 -38 -12 -50 -20
-13 -8 -23 -12 -23 -9 0 2 -24 -4 -54 -16 -30 -11 -63 -22 -73 -24 -15 -3
-211 -68 -318 -106 -16 -5 -41 -12 -55 -15 -14 -3 -43 -11 -65 -18 -63 -22
-220 -67 -250 -72 -5 -1 -13 -3 -17 -4 -5 -1 -11 -3 -15 -4 -28 -8 -106 -29
-148 -41 -27 -8 -63 -17 -80 -20 -35 -7 -45 -10 -65 -18 -8 -4 -28 -8 -45 -10
-16 -2 -39 -8 -50 -14 -18 -10 -89 -25 -122 -26 -7 0 -13 -3 -13 -7 0 -4 -6
-7 -12 -7 -24 -1 -93 -13 -123 -23 -16 -5 -46 -11 -65 -14 -19 -4 -53 -11 -75
-16 -39 -10 -55 -14 -112 -26 -16 -3 -32 -6 -38 -8 -37 -11 -66 -16 -108 -21
-27 -2 -53 -7 -58 -10 -11 -7 -31 -11 -99 -20 -29 -4 -62 -9 -74 -11 -58 -12
-160 -24 -164 -19 -3 3 -11 0 -19 -6 -7 -6 -13 -9 -13 -6 0 3 -14 2 -31 -3
-17 -5 -59 -12 -92 -15 -34 -3 -71 -7 -82 -9 -83 -15 -91 -16 -235 -32 -30 -3
-68 -8 -85 -10 -157 -21 -957 -27 -1035 -7 -13 3 -15 41 -12 276 1 150 4 277
7 284 2 7 14 10 27 7 104 -22 740 -21 903 1 91 12 113 15 180 21 39 3 74 8 78
11 5 3 18 6 30 8 71 8 126 18 152 25 17 5 46 11 65 13 19 3 53 9 75 15 22 6
56 13 75 16 19 2 43 7 52 11 9 4 45 13 80 21 35 8 68 16 73 17 6 2 30 9 55 16
25 7 50 16 55 19 6 4 17 7 25 9 18 2 116 32 145 44 11 4 70 25 130 45 61 20
127 45 148 55 20 11 37 17 37 13 0 -3 11 1 25 10 13 9 32 18 42 20 25 4 73 26
251 112 85 41 158 74 162 74 5 0 10 3 12 8 2 4 32 21 68 37 36 17 67 33 70 36
3 4 30 19 60 34 30 15 57 30 60 34 3 3 25 17 50 30 25 14 47 27 50 30 3 4 16
12 30 19 14 7 39 21 55 32 17 11 39 24 50 30 36 20 116 70 125 80 3 3 14 10
25 17 72 42 161 97 172 107 8 6 20 17 28 24 7 6 16 12 20 12 3 0 28 17 54 38
27 20 91 66 141 102 51 36 101 73 113 83 11 9 23 17 26 17 3 0 18 10 33 23 14
12 38 31 53 41 14 11 36 28 47 38 12 10 24 18 27 18 3 0 17 10 31 23 14 12 45
37 70 56 25 19 52 41 60 50 8 9 47 41 85 70 39 29 84 65 100 80 17 14 66 55
110 91 44 35 87 72 96 82 9 10 19 18 23 18 4 0 17 10 30 23 54 52 114 97 131
97 6 0 16 -5 22 -11z"/>
<path d="M343 4940 c-177 -3 -325 -9 -329 -13 -5 -4 -8 -636 -9 -1403 0 -1370
0 -1396 19 -1410 16 -11 87 -14 395 -14 207 0 382 4 390 9 13 8 15 162 15
1075 1 586 3 1066 6 1066 3 0 172 1 375 1 443 1 492 -6 618 -91 121 -81 185
-199 222 -410 15 -83 17 -191 19 -859 2 -737 3 -764 21 -777 28 -21 732 -21
760 0 19 13 19 39 21 762 1 412 -2 799 -6 859 -5 61 -12 144 -15 185 -4 41
-13 98 -21 127 -8 28 -14 61 -14 73 0 26 -27 113 -46 152 -8 14 -14 31 -14 37
0 6 -20 45 -45 87 -25 41 -45 78 -45 80 0 15 -123 153 -169 191 -31 24 -64 51
-74 59 -25 20 -158 88 -181 91 -11 2 -24 7 -30 12 -17 12 -132 47 -216 64
-224 47 -233 48 -790 50 -294 1 -680 0 -857 -3z"/>
<path d="M2986 4931 c-4 -5 11 -63 32 -128 63 -192 72 -221 72 -233 0 -7 6
-26 14 -43 7 -18 23 -66 35 -107 13 -41 26 -84 31 -95 4 -11 25 -74 45 -140
21 -66 43 -135 51 -153 8 -18 14 -39 14 -47 0 -8 6 -29 14 -47 7 -18 51 -148
96 -288 45 -140 88 -271 95 -290 7 -19 20 -62 30 -95 9 -33 21 -73 27 -90 5
-16 13 -44 17 -60 4 -17 13 -40 19 -52 7 -12 12 -29 12 -38 0 -9 6 -31 14 -48
7 -18 23 -66 35 -107 13 -41 27 -84 32 -95 8 -19 44 -130 75 -235 17 -59 33
-107 50 -148 8 -18 14 -40 14 -50 0 -9 6 -28 13 -42 7 -14 24 -60 37 -104 19
-60 30 -80 48 -87 25 -10 1073 -12 1109 -3 12 3 26 20 33 37 7 18 18 48 25 67
7 19 37 109 66 200 29 91 70 217 92 280 21 63 43 129 47 145 5 17 14 46 21 65
6 19 17 51 24 70 14 40 77 239 101 320 9 30 19 64 24 75 4 11 24 72 44 135 21
63 43 131 51 150 7 19 28 82 45 140 31 104 102 319 119 363 5 12 30 90 56 172
26 83 53 164 60 181 8 18 17 48 20 68 4 20 11 39 16 42 5 3 9 15 9 27 1 12 20
81 44 152 31 93 41 132 33 137 -7 4 -188 8 -403 8 -308 0 -394 -3 -402 -13 -6
-7 -15 -31 -21 -52 -27 -109 -69 -253 -77 -266 -4 -6 -10 -25 -15 -43 -7 -29
-31 -110 -63 -216 -34 -113 -49 -162 -75 -260 -16 -58 -37 -130 -46 -160 -9
-30 -23 -75 -30 -100 -8 -25 -18 -60 -24 -77 -6 -18 -16 -48 -22 -65 -6 -18
-17 -55 -25 -83 -15 -51 -33 -112 -60 -200 -8 -27 -21 -72 -29 -100 -8 -27
-21 -72 -29 -100 -9 -27 -23 -74 -31 -102 -21 -70 -40 -133 -65 -218 -12 -38
-24 -82 -27 -97 -3 -18 -12 -28 -23 -28 -18 0 -19 5 -60 155 -12 44 -29 103
-37 130 -8 28 -21 75 -30 105 -9 30 -21 71 -28 90 -7 19 -21 64 -30 100 -10
36 -23 85 -31 110 -12 40 -35 124 -64 230 -27 100 -53 189 -66 223 -7 20 -12
37 -9 37 2 0 0 12 -6 27 -11 30 -48 160 -59 213 -5 19 -13 49 -18 65 -6 17
-18 57 -27 90 -44 153 -85 294 -100 340 -7 22 -21 69 -30 105 -10 36 -25 85
-34 110 l-17 45 -422 3 c-250 1 -423 -2 -426 -7z"/>
<path d="M6297 4933 c-4 -3 -7 -637 -7 -1408 0 -1076 3 -1404 12 -1413 17 -17
769 -17 786 0 9 9 12 335 12 1404 0 766 -3 1399 -6 1408 -5 14 -50 16 -398 16
-216 0 -396 -3 -399 -7z"/>
<path d="M7589 4924 c-11 -13 -13 -259 -14 -1406 0 -1364 0 -1390 19 -1404 17
-12 135 -14 750 -14 421 0 766 4 814 10 45 6 119 14 165 20 109 13 289 56 337
81 8 4 45 22 83 39 37 18 73 37 80 43 7 7 33 28 57 47 100 76 250 240 243 262
-2 5 2 8 7 8 6 0 10 4 10 9 0 5 18 47 40 94 22 46 40 89 40 95 0 6 6 26 14 44
14 33 33 115 60 263 22 120 40 367 32 448 -4 40 -9 106 -12 147 -5 71 -14 126
-50 300 -15 69 -40 144 -65 195 -6 12 -11 27 -12 35 -2 8 -6 20 -10 27 -4 6
-20 36 -35 65 -37 69 -56 102 -62 108 -3 3 -16 18 -28 34 -118 153 -259 264
-417 326 -33 13 -65 27 -70 32 -11 7 -57 20 -158 43 -32 7 -66 17 -75 20 -9 4
-53 11 -97 16 -44 4 -109 13 -145 18 -39 7 -346 11 -776 11 -643 0 -713 -2
-725 -16z m1331 -629 c14 -3 43 -9 65 -12 22 -3 51 -10 65 -16 14 -5 30 -11
37 -13 7 -1 46 -19 89 -39 55 -27 96 -57 149 -108 94 -93 139 -178 171 -322 8
-38 18 -79 20 -90 10 -43 6 -322 -6 -370 -6 -27 -14 -63 -16 -80 -7 -45 -44
-154 -55 -160 -5 -4 -9 -15 -9 -26 0 -11 -7 -22 -15 -25 -8 -4 -15 -12 -15
-18 0 -15 -83 -104 -130 -138 -53 -40 -139 -83 -200 -101 -139 -41 -164 -44
-408 -45 -134 -1 -247 -4 -252 -7 -5 -3 -12 0 -17 7 -7 13 -13 1527 -5 1560 4
16 25 17 256 14 138 -2 262 -7 276 -11z"/>
<path d="M10702 4931 c-18 -11 -20 -2794 -2 -2816 18 -22 746 -22 776 -1 19
14 19 41 22 1394 1 889 -1 1389 -8 1406 l-10 26 -382 0 c-211 0 -389 -4 -396
-9z"/>
<path d="M12929 4923 c-8 -9 -28 -53 -45 -97 -135 -353 -168 -436 -185 -473
-10 -24 -19 -47 -19 -53 0 -6 -7 -22 -16 -35 -9 -14 -13 -25 -9 -25 4 0 1 -10
-7 -22 -8 -13 -25 -52 -37 -88 -13 -36 -27 -74 -31 -85 -5 -11 -19 -45 -30
-75 -45 -113 -145 -359 -166 -407 -8 -17 -14 -37 -14 -45 0 -8 -4 -18 -8 -23
-4 -6 -18 -37 -31 -70 -12 -33 -28 -73 -35 -90 -16 -35 -33 -79 -75 -195 -18
-47 -38 -98 -46 -115 -8 -16 -24 -55 -36 -85 -12 -30 -28 -69 -35 -87 -8 -17
-14 -36 -14 -41 0 -6 -6 -23 -14 -39 -8 -15 -28 -66 -46 -113 -30 -81 -61
-162 -79 -205 -5 -11 -17 -40 -26 -65 -10 -25 -23 -58 -30 -75 -7 -16 -23 -55
-35 -85 -12 -30 -27 -65 -32 -77 -6 -12 -8 -29 -5 -37 6 -14 50 -16 379 -16
412 0 410 0 423 62 4 18 11 39 16 48 5 8 26 69 48 135 55 165 62 185 77 223
l14 32 654 0 c523 0 656 -3 664 -13 6 -7 23 -51 38 -97 14 -47 32 -99 40 -117
8 -17 14 -40 14 -50 0 -10 4 -23 9 -29 5 -5 21 -47 36 -92 22 -66 34 -86 52
-93 40 -15 808 -12 820 4 7 8 1 35 -19 87 -16 41 -36 93 -45 115 -8 22 -21 54
-28 70 -7 17 -19 48 -28 70 -8 22 -35 90 -59 150 -25 61 -55 137 -67 170 -13
33 -29 74 -36 90 -7 17 -21 50 -30 75 -9 25 -23 59 -30 75 -7 17 -19 48 -28
70 -8 22 -28 72 -45 110 -16 39 -46 113 -66 165 -21 52 -51 129 -68 170 -16
41 -36 91 -43 110 -11 29 -36 92 -94 235 -5 11 -18 43 -29 70 -12 28 -35 88
-52 135 -18 47 -45 117 -60 155 -15 39 -38 95 -50 125 -11 30 -25 64 -30 75
-4 11 -18 45 -30 75 -11 30 -25 64 -30 75 -16 37 -78 189 -105 260 -15 39 -32
76 -37 83 -8 9 -127 12 -533 12 -474 0 -524 -2 -536 -17z m538 -583 c3 -16 8
-30 12 -30 4 0 7 -9 8 -20 1 -10 8 -34 17 -52 18 -41 31 -81 28 -90 -1 -5 2
-8 7 -8 5 0 11 -14 15 -31 3 -17 12 -45 20 -62 8 -18 23 -59 35 -92 11 -33 30
-85 41 -115 12 -30 25 -66 29 -80 7 -22 58 -156 81 -215 4 -11 18 -47 30 -80
12 -33 27 -72 32 -87 6 -15 10 -31 10 -35 0 -4 8 -24 19 -44 10 -20 19 -47 21
-60 2 -13 6 -29 10 -35 19 -29 35 -94 24 -95 -36 -4 -913 -5 -924 -1 -16 6 -8
49 14 73 8 9 12 18 8 21 -3 3 6 33 20 67 13 33 22 61 20 61 -3 0 2 7 10 16 9
8 16 22 16 31 0 8 6 29 14 46 7 18 19 46 25 62 6 17 16 44 22 60 7 17 13 33
13 37 1 3 4 10 9 14 4 4 7 18 7 30 0 12 6 29 13 36 6 7 13 22 15 33 3 19 15
54 51 140 9 21 16 42 16 45 0 3 5 19 12 35 6 17 28 73 48 125 20 52 40 104 45
115 8 16 41 106 75 203 8 22 25 13 32 -18z"/>
<path d="M15470 2513 c-68 -18 -129 -64 -164 -122 -22 -36 -27 -56 -27 -113
-1 -132 76 -223 217 -258 46 -12 57 -11 119 10 88 29 152 91 177 171 17 55 17
68 -11 159 -20 67 -98 131 -187 154 -34 9 -63 16 -65 15 -2 0 -29 -8 -59 -16z"/>
</g>
</svg>
